<svg viewBox="0 0 760 220" xmlns="http://www.w3.org/2000/svg" fill="none">
  <defs>
    <linearGradient id="loop" x1="220" y1="110" x2="500" y2="110" gradientUnits="userSpaceOnUse">
      <stop offset="0" stop-color="#EEF7FB"/>
      <stop offset="0.48" stop-color="#A8E7EE"/>
      <stop offset="1" stop-color="#5FD7E4"/>
    </linearGradient>
  </defs>

  <text x="20" y="158" font-family="Inter, SF Pro Display, Segoe UI, Arial, sans-serif" font-size="150" font-weight="500" letter-spacing="-4" fill="#F5F7FA">s</text>

  <path d="M240 113 C240 79, 267 56, 303 56 C339 56, 363 75, 377 96 C391 117, 409 136, 438 136 C471 136, 498 111, 498 78 C498 45, 471 20, 438 20 C402 20, 378 39, 364 60 C350 81, 332 100, 303 100 C270 100, 243 75, 243 42 C243 9, 270 -16, 303 -16 C339 -16, 366 7, 382 31" transform="translate(0 36)" stroke="url(#loop)" stroke-width="20" stroke-linecap="round" stroke-linejoin="round"/>

  <text x="530" y="158" font-family="Inter, SF Pro Display, Segoe UI, Arial, sans-serif" font-size="150" font-weight="500" letter-spacing="-6" fill="#F5F7FA">m</text>
</svg>
