<svg viewBox="430 285 880 300" fill="none" xmlns="http://www.w3.org/2000/svg">
  <defs>
    <linearGradient id="loop" x1="710" y1="430" x2="1100" y2="430" gradientUnits="userSpaceOnUse">
      <stop offset="0%" stop-color="#EEF7FB"/>
      <stop offset="45%" stop-color="#A8E7EE"/>
      <stop offset="100%" stop-color="#5FD7E4"/>
    </linearGradient>
    <filter id="softGlow" x="380" y="280" width="760" height="320" filterUnits="userSpaceOnUse">
      <feGaussianBlur stdDeviation="2" result="blur"/>
      <feMerge>
        <feMergeNode in="blur"/>
        <feMergeNode in="SourceGraphic"/>
      </feMerge>
    </filter>
  </defs>

  <g transform="translate(300, 0)">
    <text x="150" y="545" font-family="Inter, SF Pro Display, Segoe UI, Arial, sans-serif" font-size="220" font-weight="500" letter-spacing="-8" fill="#F5F7FA">s</text>
    <path d="M410 470 C410 420, 450 385, 505 385 C560 385, 595 415, 615 447 M615 447 C638 483, 665 515, 710 515 C760 515, 800 480, 800 430 C800 380, 760 345, 705 345 C655 345, 620 375, 600 407 M600 407 C577 443, 550 475, 505 475 C455 475, 415 440, 415 390 C415 340, 455 305, 510 305 C565 305, 605 340, 625 372" stroke="url(#loop)" stroke-width="32" stroke-linecap="round" stroke-linejoin="round" filter="url(#softGlow)"/>
    <text x="835" y="545" font-family="Inter, SF Pro Display, Segoe UI, Arial, sans-serif" font-size="220" font-weight="500" letter-spacing="-10" fill="#F5F7FA">m</text>
  </g>
</svg>
